<?xml version="1.0" standalone="no"?>
<!DOCTYPE svg PUBLIC "-//W3C//DTD SVG 20010904//EN"
 "http://www.w3.org/TR/2001/REC-SVG-20010904/DTD/svg10.dtd">
<svg version="1.0" xmlns="http://www.w3.org/2000/svg"
 width="337.000000pt" height="272.000000pt" viewBox="0 0 337.000000 272.000000"
 preserveAspectRatio="xMidYMid meet">
<metadata>
Created by potrace 1.11, written by Peter Selinger 2001-2013
</metadata>
<g transform="translate(0.000000,272.000000) scale(0.100000,-0.100000)"
fill="#000000" stroke="none">
<path d="M40 2005 l0 -665 40 0 40 0 0 625 0 625 605 0 605 0 0 -250 0 -250
40 0 40 0 0 245 0 245 915 0 915 0 0 -610 0 -610 -915 0 -915 0 0 285 0 285
-40 0 -40 0 0 -325 0 -325 340 0 340 0 0 -205 0 -205 40 0 40 0 0 205 0 205
575 0 575 0 0 -565 0 -565 -575 0 -575 0 0 255 0 255 -40 0 -40 0 0 -260 0
-260 -945 0 -945 0 0 520 0 520 -40 0 -40 0 0 -560 0 -560 1640 0 1640 0 0
1305 0 1305 -1640 0 -1640 0 0 -665z"/>
</g>
</svg>
