<?xml version="1.0" encoding="UTF-8" standalone="no"?>
<!DOCTYPE svg PUBLIC "-//W3C//DTD SVG 1.1//EN"
 "http://www.w3.org/Graphics/SVG/1.1/DTD/svg11.dtd">
<!-- Generated by graphviz version 2.35.20131216.0545 (20131216.0545)
 -->
<!-- Title: classes_Pyreverse Pages: 1 -->
<svg width="1330pt" height="634pt"
 viewBox="0.00 0.00 1330.00 634.00" xmlns="http://www.w3.org/2000/svg" xmlns:xlink="http://www.w3.org/1999/xlink">
<g id="graph0" class="graph" transform="scale(1 1) rotate(0) translate(4 630)">
<title>classes_Pyreverse</title>
<polygon fill="white" stroke="none" points="-4,4 -4,-630 1326,-630 1326,4 -4,4"/>
<!-- 5 -->
<g id="node1" class="node"><title>5</title>
<polygon fill="none" stroke="black" points="166.523,-491.8 166.523,-566.2 301.477,-566.2 301.477,-491.8 166.523,-491.8"/>
<text text-anchor="middle" x="234" y="-549.6" font-family="Times,serif" font-size="14.00">InheritableDocument</text>
<polyline fill="none" stroke="black" points="166.523,-541.4 301.477,-541.4 "/>
<text text-anchor="start" x="174.523" y="-524.8" font-family="Times,serif" font-size="14.00">meta : dict</text>
<polyline fill="none" stroke="black" points="166.523,-516.6 301.477,-516.6 "/>
<text text-anchor="middle" x="234" y="-500" font-family="Times,serif" font-size="14.00"> </text>
</g>
<!-- 6 -->
<g id="node2" class="node"><title>6</title>
<polygon fill="none" stroke="black" points="-0.9755,-93 -0.9755,-285 126.976,-285 126.976,-93 -0.9755,-93"/>
<text text-anchor="middle" x="63" y="-268.4" font-family="Times,serif" font-size="14.00">receiverRecords</text>
<polyline fill="none" stroke="black" points="-0.9755,-260.2 126.976,-260.2 "/>
<text text-anchor="start" x="7.0245" y="-243.6" font-family="Times,serif" font-size="14.00">y</text>
<text text-anchor="start" x="7.0245" y="-226.8" font-family="Times,serif" font-size="14.00">x</text>
<text text-anchor="start" x="7.0245" y="-210" font-family="Times,serif" font-size="14.00">receiverId : int</text>
<text text-anchor="start" x="7.0245" y="-193.2" font-family="Times,serif" font-size="14.00">mapId</text>
<text text-anchor="start" x="7.0245" y="-176.4" font-family="Times,serif" font-size="14.00">y : FloatField</text>
<text text-anchor="start" x="7.0245" y="-159.6" font-family="Times,serif" font-size="14.00">x : FloatField</text>
<text text-anchor="start" x="7.0245" y="-142.8" font-family="Times,serif" font-size="14.00">receiverId : IntField</text>
<text text-anchor="start" x="7.0245" y="-126" font-family="Times,serif" font-size="14.00">mapId : IntField</text>
<polyline fill="none" stroke="black" points="-0.9755,-117.8 126.976,-117.8 "/>
<text text-anchor="middle" x="63" y="-101.2" font-family="Times,serif" font-size="14.00"> </text>
</g>
<!-- 6&#45;&gt;5 -->
<g id="edge1" class="edge"><title>6&#45;&gt;5</title>
<path fill="none" stroke="black" d="M95.634,-285.402C107.124,-315.601 120.961,-348.724 136,-378 155.017,-415.02 180.924,-454.316 201.325,-483.397"/>
<polygon fill="none" stroke="black" points="198.563,-485.553 207.194,-491.698 204.279,-481.512 198.563,-485.553"/>
</g>
<!-- 7 -->
<g id="node3" class="node"><title>7</title>
<polygon fill="none" stroke="black" points="144.744,-0.6 144.744,-377.4 323.256,-377.4 323.256,-0.6 144.744,-0.6"/>
<text text-anchor="middle" x="234" y="-360.8" font-family="Times,serif" font-size="14.00">mapRecords</text>
<polyline fill="none" stroke="black" points="144.744,-352.6 323.256,-352.6 "/>
<text text-anchor="start" x="152.744" y="-336" font-family="Times,serif" font-size="14.00">updateTime</text>
<text text-anchor="start" x="152.744" y="-319.2" font-family="Times,serif" font-size="14.00">offsetX : int</text>
<text text-anchor="start" x="152.744" y="-302.4" font-family="Times,serif" font-size="14.00">mapId : int</text>
<text text-anchor="start" x="152.744" y="-285.6" font-family="Times,serif" font-size="14.00">offsetY : int</text>
<text text-anchor="start" x="152.744" y="-268.8" font-family="Times,serif" font-size="14.00">height : int</text>
<text text-anchor="start" x="152.744" y="-252" font-family="Times,serif" font-size="14.00">width : int</text>
<text text-anchor="start" x="152.744" y="-235.2" font-family="Times,serif" font-size="14.00">receiverId : int</text>
<text text-anchor="start" x="152.744" y="-218.4" font-family="Times,serif" font-size="14.00">scalingY</text>
<text text-anchor="start" x="152.744" y="-201.6" font-family="Times,serif" font-size="14.00">scalingX</text>
<text text-anchor="start" x="152.744" y="-184.8" font-family="Times,serif" font-size="14.00">updateTime : DateTimeField</text>
<text text-anchor="start" x="152.744" y="-168" font-family="Times,serif" font-size="14.00">offsetX : IntField</text>
<text text-anchor="start" x="152.744" y="-151.2" font-family="Times,serif" font-size="14.00">image : FileField</text>
<text text-anchor="start" x="152.744" y="-134.4" font-family="Times,serif" font-size="14.00">mapId : IntField</text>
<text text-anchor="start" x="152.744" y="-117.6" font-family="Times,serif" font-size="14.00">offsetY : IntField</text>
<text text-anchor="start" x="152.744" y="-100.8" font-family="Times,serif" font-size="14.00">height : IntField</text>
<text text-anchor="start" x="152.744" y="-84" font-family="Times,serif" font-size="14.00">width : IntField</text>
<text text-anchor="start" x="152.744" y="-67.2" font-family="Times,serif" font-size="14.00">receiverId : IntField</text>
<text text-anchor="start" x="152.744" y="-50.4" font-family="Times,serif" font-size="14.00">scalingY : FloatField</text>
<text text-anchor="start" x="152.744" y="-33.6" font-family="Times,serif" font-size="14.00">scalingX : FloatField</text>
<polyline fill="none" stroke="black" points="144.744,-25.4 323.256,-25.4 "/>
<text text-anchor="middle" x="234" y="-8.8" font-family="Times,serif" font-size="14.00"> </text>
</g>
<!-- 7&#45;&gt;5 -->
<g id="edge2" class="edge"><title>7&#45;&gt;5</title>
<path fill="none" stroke="black" d="M234,-377.78C234,-416.449 234,-453.79 234,-481.57"/>
<polygon fill="none" stroke="black" points="230.5,-481.732 234,-491.732 237.5,-481.732 230.5,-481.732"/>
</g>
<!-- 8 -->
<g id="node4" class="node"><title>8</title>
<polygon fill="none" stroke="black" points="341.022,-76.2 341.022,-301.8 510.978,-301.8 510.978,-76.2 341.022,-76.2"/>
<text text-anchor="middle" x="426" y="-285.2" font-family="Times,serif" font-size="14.00">watchRecords</text>
<polyline fill="none" stroke="black" points="341.022,-277 510.978,-277 "/>
<text text-anchor="start" x="349.022" y="-260.4" font-family="Times,serif" font-size="14.00">y</text>
<text text-anchor="start" x="349.022" y="-243.6" font-family="Times,serif" font-size="14.00">x</text>
<text text-anchor="start" x="349.022" y="-226.8" font-family="Times,serif" font-size="14.00">mapId</text>
<text text-anchor="start" x="349.022" y="-210" font-family="Times,serif" font-size="14.00">watchId : str</text>
<text text-anchor="start" x="349.022" y="-193.2" font-family="Times,serif" font-size="14.00">insertedAt</text>
<text text-anchor="start" x="349.022" y="-176.4" font-family="Times,serif" font-size="14.00">y : FloatField</text>
<text text-anchor="start" x="349.022" y="-159.6" font-family="Times,serif" font-size="14.00">x : FloatField</text>
<text text-anchor="start" x="349.022" y="-142.8" font-family="Times,serif" font-size="14.00">mapId : IntField</text>
<text text-anchor="start" x="349.022" y="-126" font-family="Times,serif" font-size="14.00">watchId : StringField</text>
<text text-anchor="start" x="349.022" y="-109.2" font-family="Times,serif" font-size="14.00">insertedAt : DateTimeField</text>
<polyline fill="none" stroke="black" points="341.022,-101 510.978,-101 "/>
<text text-anchor="middle" x="426" y="-84.4" font-family="Times,serif" font-size="14.00"> </text>
</g>
<!-- 8&#45;&gt;5 -->
<g id="edge3" class="edge"><title>8&#45;&gt;5</title>
<path fill="none" stroke="black" d="M372.666,-301.962C359.886,-327.262 345.899,-353.79 332,-378 311.137,-414.339 285.096,-453.966 265.103,-483.36"/>
<polygon fill="none" stroke="black" points="262.121,-481.521 259.37,-491.753 267.901,-485.47 262.121,-481.521"/>
</g>
<!-- 13 -->
<g id="node5" class="node"><title>13</title>
<polygon fill="none" stroke="black" points="528.637,-152.2 528.637,-225.8 643.363,-225.8 643.363,-152.2 528.637,-152.2"/>
<text text-anchor="middle" x="586" y="-209.2" font-family="Times,serif" font-size="14.00">DisableCSRF</text>
<polyline fill="none" stroke="black" points="528.637,-201 643.363,-201 "/>
<polyline fill="none" stroke="black" points="528.637,-177 643.363,-177 "/>
<text text-anchor="start" x="536.637" y="-160.4" font-family="Times,serif" font-size="14.00">process_request()</text>
</g>
<!-- 15 -->
<g id="node6" class="node"><title>15</title>
<polygon fill="none" stroke="black" points="661.854,-152.2 661.854,-225.8 778.146,-225.8 778.146,-152.2 661.854,-152.2"/>
<text text-anchor="middle" x="720" y="-209.2" font-family="Times,serif" font-size="14.00">RssiAuth</text>
<polyline fill="none" stroke="black" points="661.854,-201 778.146,-201 "/>
<polyline fill="none" stroke="black" points="661.854,-177 778.146,-177 "/>
<text text-anchor="start" x="669.854" y="-160.4" font-family="Times,serif" font-size="14.00">is_authenticated()</text>
</g>
<!-- 18 -->
<g id="node8" class="node"><title>18</title>
<polygon fill="none" stroke="black" points="433.742,-433 433.742,-625 612.258,-625 612.258,-433 433.742,-433"/>
<text text-anchor="middle" x="523" y="-608.4" font-family="Times,serif" font-size="14.00">Meta</text>
<polyline fill="none" stroke="black" points="433.742,-600.2 612.258,-600.2 "/>
<text text-anchor="start" x="441.742" y="-583.6" font-family="Times,serif" font-size="14.00">excludes : list</text>
<text text-anchor="start" x="441.742" y="-566.8" font-family="Times,serif" font-size="14.00">filtering : dict</text>
<text text-anchor="start" x="441.742" y="-550" font-family="Times,serif" font-size="14.00">allowed_methods : tuple</text>
<text text-anchor="start" x="441.742" y="-533.2" font-family="Times,serif" font-size="14.00">queryset</text>
<text text-anchor="start" x="441.742" y="-516.4" font-family="Times,serif" font-size="14.00">authentication</text>
<text text-anchor="start" x="441.742" y="-499.6" font-family="Times,serif" font-size="14.00">paginator_class : Paginator</text>
<text text-anchor="start" x="441.742" y="-482.8" font-family="Times,serif" font-size="14.00">authorization : Authorization</text>
<text text-anchor="start" x="441.742" y="-466" font-family="Times,serif" font-size="14.00">resource_name : str</text>
<polyline fill="none" stroke="black" points="433.742,-457.8 612.258,-457.8 "/>
<text text-anchor="middle" x="523" y="-441.2" font-family="Times,serif" font-size="14.00"> </text>
</g>
<!-- 15&#45;&gt;18 -->
<g id="edge4" class="edge"><title>15&#45;&gt;18</title>
<path fill="none" stroke="black" d="M711.186,-225.988C700.664,-265.131 680.798,-328.699 652,-378 651.748,-378.431 634.643,-398.358 612.968,-423.554"/>
<polygon fill="black" stroke="black" points="612.957,-423.567 612.076,-430.724 605.13,-432.663 606.012,-425.506 612.957,-423.567"/>
<text text-anchor="middle" x="675.656" y="-400.8" font-family="Times,serif" font-size="14.00" fill="green">authentication</text>
</g>
<!-- 20 -->
<g id="node10" class="node"><title>20</title>
<polygon fill="none" stroke="black" points="630.742,-441.4 630.742,-616.6 809.258,-616.6 809.258,-441.4 630.742,-441.4"/>
<text text-anchor="middle" x="720" y="-600" font-family="Times,serif" font-size="14.00">Meta</text>
<polyline fill="none" stroke="black" points="630.742,-591.8 809.258,-591.8 "/>
<text text-anchor="start" x="638.742" y="-575.2" font-family="Times,serif" font-size="14.00">excludes : list</text>
<text text-anchor="start" x="638.742" y="-558.4" font-family="Times,serif" font-size="14.00">filtering : dict</text>
<text text-anchor="start" x="638.742" y="-541.6" font-family="Times,serif" font-size="14.00">allowed_methods : tuple</text>
<text text-anchor="start" x="638.742" y="-524.8" font-family="Times,serif" font-size="14.00">queryset</text>
<text text-anchor="start" x="638.742" y="-508" font-family="Times,serif" font-size="14.00">authentication</text>
<text text-anchor="start" x="638.742" y="-491.2" font-family="Times,serif" font-size="14.00">resource_name : str</text>
<text text-anchor="start" x="638.742" y="-474.4" font-family="Times,serif" font-size="14.00">authorization : Authorization</text>
<polyline fill="none" stroke="black" points="630.742,-466.2 809.258,-466.2 "/>
<text text-anchor="middle" x="720" y="-449.6" font-family="Times,serif" font-size="14.00"> </text>
</g>
<!-- 15&#45;&gt;20 -->
<g id="edge5" class="edge"><title>15&#45;&gt;20</title>
<path fill="none" stroke="black" d="M720,-225.852C720,-273.855 720,-360.887 720,-429.257"/>
<polygon fill="black" stroke="black" points="720,-429.357 724,-435.357 720,-441.357 716,-435.357 720,-429.357"/>
<text text-anchor="middle" x="759.656" y="-400.8" font-family="Times,serif" font-size="14.00" fill="green">authentication</text>
</g>
<!-- 22 -->
<g id="node12" class="node"><title>22</title>
<polygon fill="none" stroke="black" points="827.742,-433 827.742,-625 1006.26,-625 1006.26,-433 827.742,-433"/>
<text text-anchor="middle" x="917" y="-608.4" font-family="Times,serif" font-size="14.00">Meta</text>
<polyline fill="none" stroke="black" points="827.742,-600.2 1006.26,-600.2 "/>
<text text-anchor="start" x="835.742" y="-583.6" font-family="Times,serif" font-size="14.00">excludes : list</text>
<text text-anchor="start" x="835.742" y="-566.8" font-family="Times,serif" font-size="14.00">filtering : dict</text>
<text text-anchor="start" x="835.742" y="-550" font-family="Times,serif" font-size="14.00">allowed_methods : tuple</text>
<text text-anchor="start" x="835.742" y="-533.2" font-family="Times,serif" font-size="14.00">queryset</text>
<text text-anchor="start" x="835.742" y="-516.4" font-family="Times,serif" font-size="14.00">authentication</text>
<text text-anchor="start" x="835.742" y="-499.6" font-family="Times,serif" font-size="14.00">resource_name : str</text>
<text text-anchor="start" x="835.742" y="-482.8" font-family="Times,serif" font-size="14.00">paginator_class : Paginator</text>
<text text-anchor="start" x="835.742" y="-466" font-family="Times,serif" font-size="14.00">authorization : Authorization</text>
<polyline fill="none" stroke="black" points="827.742,-457.8 1006.26,-457.8 "/>
<text text-anchor="middle" x="917" y="-441.2" font-family="Times,serif" font-size="14.00"> </text>
</g>
<!-- 15&#45;&gt;22 -->
<g id="edge6" class="edge"><title>15&#45;&gt;22</title>
<path fill="none" stroke="black" d="M728.431,-226.085C738.579,-265.311 757.964,-328.951 787,-378 792.453,-387.211 795.946,-387.949 803,-396 810.782,-404.882 818.839,-414.122 826.907,-423.403"/>
<polygon fill="black" stroke="black" points="827.1,-423.626 834.054,-425.534 834.968,-432.687 828.013,-430.779 827.1,-423.626"/>
<text text-anchor="middle" x="858.656" y="-400.8" font-family="Times,serif" font-size="14.00" fill="green">authentication</text>
</g>
<!-- 17 -->
<g id="node7" class="node"><title>17</title>
<polygon fill="none" stroke="black" points="795.69,-152.2 795.69,-225.8 900.31,-225.8 900.31,-152.2 795.69,-152.2"/>
<text text-anchor="middle" x="848" y="-209.2" font-family="Times,serif" font-size="14.00">WatchResource</text>
<polyline fill="none" stroke="black" points="795.69,-201 900.31,-201 "/>
<polyline fill="none" stroke="black" points="795.69,-177 900.31,-177 "/>
<text text-anchor="middle" x="848" y="-160.4" font-family="Times,serif" font-size="14.00"> </text>
</g>
<!-- 19 -->
<g id="node9" class="node"><title>19</title>
<polygon fill="none" stroke="black" points="918.128,-152.2 918.128,-225.8 1011.87,-225.8 1011.87,-152.2 918.128,-152.2"/>
<text text-anchor="middle" x="965" y="-209.2" font-family="Times,serif" font-size="14.00">MapResource</text>
<polyline fill="none" stroke="black" points="918.128,-201 1011.87,-201 "/>
<polyline fill="none" stroke="black" points="918.128,-177 1011.87,-177 "/>
<text text-anchor="middle" x="965" y="-160.4" font-family="Times,serif" font-size="14.00"> </text>
</g>
<!-- 21 -->
<g id="node11" class="node"><title>21</title>
<polygon fill="none" stroke="black" points="1030.08,-152.2 1030.08,-225.8 1147.92,-225.8 1147.92,-152.2 1030.08,-152.2"/>
<text text-anchor="middle" x="1089" y="-209.2" font-family="Times,serif" font-size="14.00">ReceiverResource</text>
<polyline fill="none" stroke="black" points="1030.08,-201 1147.92,-201 "/>
<polyline fill="none" stroke="black" points="1030.08,-177 1147.92,-177 "/>
<text text-anchor="middle" x="1089" y="-160.4" font-family="Times,serif" font-size="14.00"> </text>
</g>
<!-- 25 -->
<g id="node13" class="node"><title>25</title>
<polygon fill="none" stroke="black" points="1165.66,-59.8 1165.66,-318.2 1322.34,-318.2 1322.34,-59.8 1165.66,-59.8"/>
<text text-anchor="middle" x="1244" y="-301.6" font-family="Times,serif" font-size="14.00">GenerateData</text>
<polyline fill="none" stroke="black" points="1165.66,-293.4 1322.34,-293.4 "/>
<polyline fill="none" stroke="black" points="1165.66,-269.4 1322.34,-269.4 "/>
<text text-anchor="start" x="1173.66" y="-252.8" font-family="Times,serif" font-size="14.00">generate_save_map()</text>
<text text-anchor="start" x="1173.66" y="-236" font-family="Times,serif" font-size="14.00">get_random_mapId()</text>
<text text-anchor="start" x="1173.66" y="-219.2" font-family="Times,serif" font-size="14.00">update_receiver_data()</text>
<text text-anchor="start" x="1173.66" y="-202.4" font-family="Times,serif" font-size="14.00">generate_save_receiver()</text>
<text text-anchor="start" x="1173.66" y="-185.6" font-family="Times,serif" font-size="14.00">delete_maps()</text>
<text text-anchor="start" x="1173.66" y="-168.8" font-family="Times,serif" font-size="14.00">delete_extra_receivers()</text>
<text text-anchor="start" x="1173.66" y="-152" font-family="Times,serif" font-size="14.00">update_old_maps()</text>
<text text-anchor="start" x="1173.66" y="-135.2" font-family="Times,serif" font-size="14.00">get_maps()</text>
<text text-anchor="start" x="1173.66" y="-118.4" font-family="Times,serif" font-size="14.00">insert_maps()</text>
<text text-anchor="start" x="1173.66" y="-101.6" font-family="Times,serif" font-size="14.00">delete_watches()</text>
<text text-anchor="start" x="1173.66" y="-84.8" font-family="Times,serif" font-size="14.00">generate_save_watch()</text>
<text text-anchor="start" x="1173.66" y="-68" font-family="Times,serif" font-size="14.00">delete_receivers()</text>
</g>
</g>
</svg>
