<?xml version="1.0" encoding="UTF-8" standalone="no"?>
<!DOCTYPE svg PUBLIC "-//W3C//DTD SVG 1.1//EN"
 "http://www.w3.org/Graphics/SVG/1.1/DTD/svg11.dtd">
<!-- Generated by graphviz version 2.35.20131216.0545 (20131216.0545)
 -->
<!-- Title: packages_Pyreverse Pages: 1 -->
<svg width="839pt" height="188pt"
 viewBox="0.00 0.00 839.00 188.00" xmlns="http://www.w3.org/2000/svg" xmlns:xlink="http://www.w3.org/1999/xlink">
<g id="graph0" class="graph" transform="scale(1 1) rotate(0) translate(4 184)">
<title>packages_Pyreverse</title>
<polygon fill="white" stroke="none" points="-4,4 -4,-184 835,-184 835,4 -4,4"/>
<!-- 3 -->
<g id="node1" class="node"><title>3</title>
<polygon fill="none" stroke="black" points="320.475,-108 223.525,-108 223.525,-72 320.475,-72 320.475,-108"/>
<text text-anchor="middle" x="272" y="-85.8" font-family="Times,serif" font-size="14.00">restApp.views</text>
</g>
<!-- 4 -->
<g id="node2" class="node"><title>4</title>
<polygon fill="none" stroke="black" points="334.473,-180 209.527,-180 209.527,-144 334.473,-144 334.473,-180"/>
<text text-anchor="middle" x="272" y="-157.8" font-family="Times,serif" font-size="14.00">restApp.documents</text>
</g>
<!-- 3&#45;&gt;4 -->
<g id="edge1" class="edge"><title>3&#45;&gt;4</title>
<path fill="none" stroke="black" d="M272,-108.303C272,-116.017 272,-125.288 272,-133.888"/>
<polygon fill="black" stroke="black" points="272,-143.896 267.5,-133.896 272,-138.896 272,-133.896 272,-133.896 272,-133.896 272,-138.896 276.5,-133.896 272,-143.896 272,-143.896"/>
</g>
<!-- 9 -->
<g id="node3" class="node"><title>9</title>
<polygon fill="none" stroke="black" points="300.258,-36 195.742,-36 195.742,-0 300.258,-0 300.258,-36"/>
<text text-anchor="middle" x="248" y="-13.8" font-family="Times,serif" font-size="14.00">restApp.models</text>
</g>
<!-- 10 -->
<g id="node4" class="node"><title>10</title>
<polygon fill="none" stroke="black" points="177.313,-36 92.687,-36 92.687,-0 177.313,-0 177.313,-36"/>
<text text-anchor="middle" x="135" y="-13.8" font-family="Times,serif" font-size="14.00">restApp.urls</text>
</g>
<!-- 16 -->
<g id="node8" class="node"><title>16</title>
<polygon fill="none" stroke="black" points="193.172,-108 76.8283,-108 76.8283,-72 193.172,-72 193.172,-108"/>
<text text-anchor="middle" x="135" y="-85.8" font-family="Times,serif" font-size="14.00">restApp.resources</text>
</g>
<!-- 10&#45;&gt;16 -->
<g id="edge2" class="edge"><title>10&#45;&gt;16</title>
<path fill="none" stroke="black" d="M135,-36.3034C135,-44.0173 135,-53.2875 135,-61.8876"/>
<polygon fill="black" stroke="black" points="135,-71.8957 130.5,-61.8956 135,-66.8957 135,-61.8957 135,-61.8957 135,-61.8957 135,-66.8957 139.5,-61.8957 135,-71.8957 135,-71.8957"/>
</g>
<!-- 11 -->
<g id="node5" class="node"><title>11</title>
<polygon fill="none" stroke="black" points="60.3178,-180 -0.317837,-180 -0.317837,-144 60.3178,-144 60.3178,-180"/>
<text text-anchor="middle" x="30" y="-157.8" font-family="Times,serif" font-size="14.00">restApp</text>
</g>
<!-- 12 -->
<g id="node6" class="node"><title>12</title>
<polygon fill="none" stroke="black" points="447.9,-36 318.1,-36 318.1,-0 447.9,-0 447.9,-36"/>
<text text-anchor="middle" x="383" y="-13.8" font-family="Times,serif" font-size="14.00">restApp.middleware</text>
</g>
<!-- 14 -->
<g id="node7" class="node"><title>14</title>
<polygon fill="none" stroke="black" points="192.363,-180 77.6368,-180 77.6368,-144 192.363,-144 192.363,-180"/>
<text text-anchor="middle" x="135" y="-157.8" font-family="Times,serif" font-size="14.00">restApp.rssi_auth</text>
</g>
<!-- 16&#45;&gt;4 -->
<g id="edge3" class="edge"><title>16&#45;&gt;4</title>
<path fill="none" stroke="black" d="M168.514,-108.124C186.841,-117.488 209.736,-129.186 229.328,-139.197"/>
<polygon fill="black" stroke="black" points="238.357,-143.81 227.405,-143.267 233.905,-141.535 229.452,-139.26 229.452,-139.26 229.452,-139.26 233.905,-141.535 231.5,-135.253 238.357,-143.81 238.357,-143.81"/>
</g>
<!-- 16&#45;&gt;11 -->
<g id="edge4" class="edge"><title>16&#45;&gt;11</title>
<path fill="none" stroke="black" d="M109.314,-108.124C95.7125,-117.192 78.8285,-128.448 64.1388,-138.241"/>
<polygon fill="black" stroke="black" points="55.7846,-143.81 61.609,-134.519 59.9449,-141.037 64.1051,-138.263 64.1051,-138.263 64.1051,-138.263 59.9449,-141.037 66.6013,-142.007 55.7846,-143.81 55.7846,-143.81"/>
</g>
<!-- 16&#45;&gt;14 -->
<g id="edge5" class="edge"><title>16&#45;&gt;14</title>
<path fill="none" stroke="black" d="M135,-108.303C135,-116.017 135,-125.288 135,-133.888"/>
<polygon fill="black" stroke="black" points="135,-143.896 130.5,-133.896 135,-138.896 135,-133.896 135,-133.896 135,-133.896 135,-138.896 139.5,-133.896 135,-143.896 135,-143.896"/>
</g>
<!-- 23 -->
<g id="node9" class="node"><title>23</title>
<polygon fill="none" stroke="black" points="572.093,-36 465.907,-36 465.907,-0 572.093,-0 572.093,-36"/>
<text text-anchor="middle" x="519" y="-13.8" font-family="Times,serif" font-size="14.00">restApp.settings</text>
</g>
<!-- 24 -->
<g id="node10" class="node"><title>24</title>
<polygon fill="none" stroke="black" points="550.126,-108 347.874,-108 347.874,-72 550.126,-72 550.126,-108"/>
<text text-anchor="middle" x="449" y="-85.8" font-family="Times,serif" font-size="14.00">restApp.dummyData.dummydata</text>
</g>
<!-- 24&#45;&gt;4 -->
<g id="edge7" class="edge"><title>24&#45;&gt;4</title>
<path fill="none" stroke="black" d="M405.701,-108.124C381.289,-117.778 350.604,-129.913 324.79,-140.122"/>
<polygon fill="black" stroke="black" points="315.158,-143.932 322.803,-136.069 319.808,-142.093 324.458,-140.254 324.458,-140.254 324.458,-140.254 319.808,-142.093 326.113,-144.439 315.158,-143.932 315.158,-143.932"/>
</g>
<!-- 26 -->
<g id="node11" class="node"><title>26</title>
<polygon fill="none" stroke="black" points="563.68,-180 352.32,-180 352.32,-144 563.68,-144 563.68,-180"/>
<text text-anchor="middle" x="458" y="-157.8" font-family="Times,serif" font-size="14.00">restApp.dummyData.setup_django</text>
</g>
<!-- 24&#45;&gt;26 -->
<g id="edge6" class="edge"><title>24&#45;&gt;26</title>
<path fill="none" stroke="black" d="M451.225,-108.303C452.217,-116.017 453.408,-125.288 454.514,-133.888"/>
<polygon fill="black" stroke="black" points="455.801,-143.896 450.062,-134.551 455.163,-138.936 454.526,-133.977 454.526,-133.977 454.526,-133.977 455.163,-138.936 458.989,-133.403 455.801,-143.896 455.801,-143.896"/>
</g>
<!-- 27 -->
<g id="node12" class="node"><title>27</title>
<polygon fill="none" stroke="black" points="680.259,-36 589.741,-36 589.741,-0 680.259,-0 680.259,-36"/>
<text text-anchor="middle" x="635" y="-13.8" font-family="Times,serif" font-size="14.00">restApp.wsgi</text>
</g>
<!-- 28 -->
<g id="node13" class="node"><title>28</title>
<polygon fill="none" stroke="black" points="831.525,-36 698.475,-36 698.475,-0 831.525,-0 831.525,-36"/>
<text text-anchor="middle" x="765" y="-13.8" font-family="Times,serif" font-size="14.00">restApp.dummyData</text>
</g>
</g>
</svg>
